<svg width="15" height="9" viewBox="0 0 15 9" fill="none" xmlns="http://www.w3.org/2000/svg">
<path d="M0.660511 9V0.272727H6.74574V1.9858H2.76989V3.77557H6.43466V5.4929H2.76989V7.28693H6.74574V9H0.660511ZM10.1506 5.26705V9H8.06676V2.45455H10.0483V3.65625H10.1207C10.2656 3.25568 10.5128 2.94176 10.8622 2.71449C11.2116 2.48438 11.6278 2.36932 12.1108 2.36932C12.571 2.36932 12.9702 2.47301 13.3082 2.6804C13.6491 2.88494 13.9134 3.17187 14.1009 3.54119C14.2912 3.90767 14.3849 4.33665 14.3821 4.82812V9H12.2983V5.23722C12.3011 4.87358 12.2088 4.58949 12.0213 4.38494C11.8366 4.1804 11.5795 4.07812 11.25 4.07812C11.0312 4.07812 10.8381 4.12642 10.6705 4.22301C10.5057 4.31676 10.3778 4.4517 10.2869 4.62784C10.1989 4.80398 10.1534 5.01705 10.1506 5.26705Z" fill="#01a56e"/>
</svg>
